# Blender v2.78 (sub 0) OBJ File: 'chest.blend'
# www.blender.org
mtllib chest.mtl
o chest.base
v 0.062500 0.000000 0.937500
v 0.062500 0.000000 0.062500
v 0.937500 0.000000 0.062500
v 0.937500 0.000000 0.937500
v 0.937500 0.593750 0.062500
v 0.937500 0.593750 0.937500
v 0.062500 0.593750 0.937500
v 0.062500 0.593750 0.062500
v 0.500000 0.000000 0.062500
v 0.500000 0.000000 0.937500
v 0.500000 0.593750 0.937500
v 0.500000 0.593750 0.062500
v 0.062500 0.562500 0.062500
v 0.937500 0.562500 0.062500
v 0.937500 0.562500 0.937500
v 0.062500 0.562500 0.937500
v 0.500000 0.562500 0.937500
v 0.500000 0.562500 0.062500
vt 0.9844 0.9062
vt 0.7656 0.8906
vt 0.9844 0.8906
vt 0.9844 0.9062
vt 0.7656 0.8906
vt 0.9844 0.8906
vt 0.3750 0.9844
vt 0.2656 0.7656
vt 0.3750 0.7656
vt 0.0156 0.4844
vt 0.1250 0.2656
vt 0.1250 0.4844
vt 0.3750 0.4844
vt 0.4844 0.2656
vt 0.4844 0.4844
vt 0.4844 0.9844
vt 0.4844 0.7656
vt 0.6250 0.9062
vt 0.7344 0.8906
vt 0.7344 0.9062
vt 0.6250 0.8906
vt 0.7344 0.7500
vt 0.7656 0.8906
vt 0.8750 0.9062
vt 0.7656 0.9062
vt 0.7656 0.7500
vt 0.8750 0.8906
vt 0.9844 0.9062
vt 0.8750 0.7500
vt 0.9844 0.8906
vt 0.5156 0.9062
vt 0.5156 0.8906
vt 0.6250 0.7500
vt 0.7656 0.7500
vt 0.9844 0.7500
vt 0.7656 0.7500
vt 0.9844 0.7500
vt 0.7656 0.9062
vt 0.7656 0.9062
vt 0.2656 0.9844
vt 0.0156 0.2656
vt 0.3750 0.2656
vt 0.9844 0.7500
vt 0.5156 0.7500
vn -1.0000 0.0000 0.0000
vn 1.0000 0.0000 0.0000
vn 0.0000 -1.0000 0.0000
vn 0.0000 1.0000 0.0000
vn 0.0000 0.0000 -1.0000
vn 0.0000 0.0000 1.0000
usemtl material
f 7/1/1 13/2/1 16/3/1
f 5/4/2 15/5/2 14/6/2
f 9/7/3 4/8/3 10/9/3
f 6/10/4 12/11/4 11/12/4
f 11/13/4 8/14/4 7/15/4
f 2/16/3 10/9/3 1/17/3
f 12/18/5 13/19/5 8/20/5
f 18/21/5 2/22/5 13/19/5
f 16/23/6 11/24/6 7/25/6
f 1/26/6 17/27/6 16/23/6
f 17/27/6 6/28/6 11/24/6
f 10/29/6 15/30/6 17/27/6
f 5/31/5 18/21/5 12/18/5
f 14/32/5 9/33/5 18/21/5
f 14/6/2 4/34/2 3/35/2
f 16/3/1 2/36/1 1/37/1
f 7/1/1 8/38/1 13/2/1
f 5/4/2 6/39/2 15/5/2
f 9/7/3 3/40/3 4/8/3
f 6/10/4 5/41/4 12/11/4
f 11/13/4 12/42/4 8/14/4
f 2/16/3 9/7/3 10/9/3
f 12/18/5 18/21/5 13/19/5
f 18/21/5 9/33/5 2/22/5
f 16/23/6 17/27/6 11/24/6
f 1/26/6 10/29/6 17/27/6
f 17/27/6 15/30/6 6/28/6
f 10/29/6 4/43/6 15/30/6
f 5/31/5 14/32/5 18/21/5
f 14/32/5 3/44/5 9/33/5
f 14/6/2 15/5/2 4/34/2
f 16/3/1 13/2/1 2/36/1
