# Blender v2.78 (sub 0) OBJ File: 'chest.blend'
# www.blender.org
mtllib chest_large.mtl
o chest.base.large
v -0.937500 0.000000 0.937500
v -0.937500 0.000000 0.062500
v 0.937500 0.000000 0.062500
v 0.937500 0.000000 0.937500
v 0.937500 0.625000 0.062500
v 0.937500 0.625000 0.937500
v -0.937500 0.625000 0.937500
v -0.937500 0.625000 0.062500
vt 0.7344 0.1562
vt 0.5156 -0.0000
vt 0.7344 0.0000
vt 0.7344 0.1562
vt 0.5156 -0.0000
vt 0.7344 0.0000
vt 0.4844 0.9844
vt 0.0156 0.7656
vt 0.4844 0.7656
vt 0.0156 0.4062
vt 0.4844 0.2500
vt 0.4844 0.4062
vt 0.0156 0.5000
vt 0.4844 0.6562
vt 0.0156 0.6562
vt 0.5156 0.7344
vt 0.9844 0.5156
vt 0.9844 0.7344
vt 0.5156 0.1562
vt 0.5156 0.1562
vt 0.0156 0.9844
vt 0.0156 0.2500
vt 0.4844 0.5000
vt 0.5156 0.5156
vn -1.0000 0.0000 0.0000
vn 1.0000 0.0000 0.0000
vn 0.0000 -1.0000 0.0000
vn 0.0000 0.0000 -1.0000
vn 0.0000 0.0000 1.0000
vn 0.0000 1.0000 0.0000
usemtl chest
s off
f 7/1/1 2/2/1 1/3/1
f 5/4/2 4/5/2 3/6/2
f 2/7/3 4/8/3 1/9/3
f 5/10/4 2/11/4 8/12/4
f 1/13/5 6/14/5 7/15/5
f 6/16/6 8/17/6 7/18/6
f 7/1/1 8/19/1 2/2/1
f 5/4/2 6/20/2 4/5/2
f 2/7/3 3/21/3 4/8/3
f 5/10/4 3/22/4 2/11/4
f 1/13/5 4/23/5 6/14/5
f 6/16/6 5/24/6 8/17/6
