# Blender v2.78 (sub 0) OBJ File: 'chest.blend'
# www.blender.org
mtllib chest.mtl
o chest.item
v 0.062500 0.000000 0.937500
v 0.062500 0.000000 0.062500
v 0.937500 0.000000 0.062500
v 0.937500 0.000000 0.937500
v 0.062500 0.937500 0.937500
v 0.062500 0.937500 0.062500
v 0.937500 0.937500 0.062500
v 0.937500 0.937500 0.937500
v 0.437500 0.750000 0.000000
v 0.437500 0.500000 0.000000
v 0.562500 0.500000 0.000000
v 0.562500 0.750000 0.000000
v 0.437500 0.750000 0.062500
v 0.437500 0.500000 0.062500
v 0.562500 0.750000 0.062500
v 0.562500 0.500000 0.062500
vt 0.7344 0.2344
vt 0.5156 -0.0000
vt 0.7344 0.0000
vt 0.7344 0.2344
vt 0.5156 -0.0000
vt 0.7344 0.0000
vt 0.7344 0.4844
vt 0.5156 0.2656
vt 0.7344 0.2656
vt 0.2656 0.2344
vt 0.4844 0.0000
vt 0.4844 0.2344
vt 0.5156 -0.0000
vt 0.7344 0.2344
vt 0.5156 0.2344
vt 0.0938 0.1875
vt 0.1250 0.1250
vt 0.1250 0.1875
vt 0.1406 0.1250
vt 0.1406 0.1875
vt 0.1562 0.1875
vt 0.1250 0.2031
vt 0.1562 0.2031
vt 0.0938 0.1250
vt 0.0781 0.1875
vt 0.0781 0.1250
vt 0.1250 0.2031
vt 0.1719 0.1250
vt 0.1406 0.1875
vt 0.1719 0.1875
vt 0.5156 0.4844
vt 0.7344 0.2656
vt 0.7344 0.4844
vt 0.5156 0.2344
vt 0.5156 0.2344
vt 0.5156 0.4844
vt 0.2656 0.0000
vt 0.7344 0.0000
vt 0.1250 0.1875
vt 0.0938 0.2031
vt 0.1406 0.1250
vt 0.5156 0.2656
vn -1.0000 0.0000 0.0000
vn 1.0000 0.0000 0.0000
vn 0.0000 -1.0000 0.0000
vn 0.0000 0.0000 -1.0000
vn 0.0000 0.0000 1.0000
vn 0.0000 1.0000 0.0000
usemtl chest
f 5/1/1 2/2/1 1/3/1
f 7/4/2 4/5/2 3/6/2
f 2/7/3 4/8/3 1/9/3
f 7/10/4 2/11/4 6/12/4
f 1/13/5 8/14/5 5/15/5
f 12/16/4 10/17/4 9/18/4
f 9/18/1 14/19/1 13/20/1
f 10/21/3 16/22/3 14/23/3
f 11/24/2 15/25/2 16/26/2
f 13/27/6 12/16/6 9/18/6
f 14/28/5 15/29/5 13/30/5
f 8/31/6 6/32/6 5/33/6
f 5/1/1 6/34/1 2/2/1
f 7/4/2 8/35/2 4/5/2
f 2/7/3 3/36/3 4/8/3
f 7/10/4 3/37/4 2/11/4
f 1/13/5 4/38/5 8/14/5
f 12/16/4 11/24/4 10/17/4
f 9/18/1 10/17/1 14/19/1
f 10/21/3 11/39/3 16/22/3
f 11/24/2 12/16/2 15/25/2
f 13/27/6 15/40/6 12/16/6
f 14/28/5 16/41/5 15/29/5
f 8/31/6 7/42/6 6/32/6
