# Blender v2.78 (sub 0) OBJ File: 'locker.blend'
# www.blender.org
mtllib locker.mtl
o locker_door_right
v 0.937500 0.937500 0.062500
v 0.062500 0.062500 0.125000
v 0.062500 0.937500 0.062500
v 0.062500 0.937500 0.125000
v 0.937500 0.937500 0.125000
v 0.062500 0.062500 0.062500
v 0.937500 0.062500 0.062500
v 0.937500 0.062500 0.125000
v 0.812500 0.437500 0.000000
v 0.812500 0.437500 0.062500
v 0.750000 0.437500 0.062500
v 0.750000 0.437500 0.000000
v 0.750000 0.562500 0.000000
v 0.812500 0.562500 0.062500
v 0.750000 0.562500 0.062500
v 0.812500 0.562500 0.000000
vt 0.7344 0.9844
vt 0.5156 0.7656
vt 0.7344 0.7656
vt 0.7500 0.9844
vt 0.7500 0.7656
vt 0.9844 0.9844
vt 0.7656 0.7656
vt 0.9844 0.7656
vt 0.5156 1.0000
vt 0.5156 0.9844
vt 0.7344 0.7500
vt 0.5000 0.7656
vt 0.1094 0.6094
vt 0.0938 0.6406
vt 0.1094 0.6406
vt 0.1250 0.6406
vt 0.1094 0.6562
vt 0.1250 0.6562
vt 0.1250 0.5938
vt 0.1094 0.6094
vt 0.1250 0.6094
vt 0.1406 0.6094
vt 0.1250 0.6406
vt 0.1406 0.6406
vt 0.1094 0.6406
vt 0.7656 0.9844
vt 0.7344 1.0000
vt 0.5156 0.7500
vt 0.5000 0.9844
vt 0.0938 0.6094
vt 0.1094 0.5938
vt 0.1250 0.6094
vn 0.0000 0.0000 -1.0000
vn -1.0000 0.0000 0.0000
vn 0.0000 0.0000 1.0000
vn 0.0000 1.0000 0.0000
vn 0.0000 -1.0000 0.0000
vn 1.0000 0.0000 0.0000
usemtl material
f 3/1/1 7/2/1 6/3/1
f 4/4/2 6/3/2 2/5/2
f 5/6/3 2/7/3 8/8/3
f 3/1/4 5/9/4 1/10/4
f 7/2/5 2/11/5 6/3/5
f 1/10/6 8/12/6 7/2/6
f 10/13/6 16/14/6 14/15/6
f 12/16/5 10/17/5 11/18/5
f 15/19/4 16/20/4 13/21/4
f 12/22/2 15/23/2 13/24/2
f 13/21/1 9/25/1 12/16/1
f 3/1/1 1/10/1 7/2/1
f 4/4/2 3/1/2 6/3/2
f 5/6/3 4/26/3 2/7/3
f 3/1/4 4/27/4 5/9/4
f 7/2/5 8/28/5 2/11/5
f 1/10/6 5/29/6 8/12/6
f 10/13/6 9/30/6 16/14/6
f 12/16/5 9/25/5 10/17/5
f 15/19/4 14/31/4 16/20/4
f 12/22/2 11/32/2 15/23/2
f 13/21/1 16/20/1 9/25/1
