# Blender v2.78 (sub 0) OBJ File: 'locker.blend'
# www.blender.org
mtllib locker.mtl
o locker_closed
v 0.187500 0.437500 -0.000000
v 0.187500 0.437500 0.062500
v 0.250000 0.437500 0.062500
v 0.250000 0.437500 -0.000000
v 0.250000 0.562500 0.000000
v 0.187500 0.562500 0.062500
v 0.250000 0.562500 0.062500
v 0.187500 0.562500 0.000000
v 1.000000 0.000000 0.000000
v 0.062500 0.062500 0.062500
v 1.000000 1.000000 0.000000
v 0.000000 0.000000 1.000000
v 1.000000 0.000000 1.000000
v 1.000000 1.000000 1.000000
v 0.000000 1.000000 1.000000
v 0.000000 0.000000 0.000000
v 0.000000 1.000000 0.000000
v 0.062500 0.062500 -0.000000
v 0.937500 0.062500 0.062500
v 0.937500 0.937500 0.000000
v 0.937500 0.062500 -0.000000
v 0.062500 0.937500 0.000000
v 0.062500 0.937500 0.062500
v 0.937500 0.937500 0.062500
vt 1.0000 0.1562
vt 0.9688 0.2188
vt 0.9688 0.1562
vt 1.0000 0.2500
vt 0.9688 0.2812
vt 0.9688 0.2500
vt 1.0000 0.3438
vt 0.9688 0.3750
vt 0.9688 0.3438
vt 1.0000 0.4062
vt 0.9688 0.4688
vt 0.9688 0.4062
vt 1.0000 0.2812
vt 0.5000 1.0000
vt 0.0312 0.9688
vt 0.4688 0.9688
vt 0.5000 1.0000
vt 0.0000 0.5000
vt 0.5000 0.5000
vt 1.0000 0.9688
vt 0.9688 0.5312
vt 1.0000 0.5312
vt 0.0000 0.5000
vt 0.0312 0.5312
vt 0.5000 1.0000
vt 0.5000 0.5000
vt 0.4688 0.5312
vt 0.5000 0.5000
vt 0.0000 1.0000
vt 0.5000 0.5000
vt 0.5000 1.0000
vt 0.0000 0.5000
vt 0.5000 1.0000
vt 0.0000 1.0000
vt 0.0000 1.0000
vt 0.0000 0.5000
vt 0.4688 0.0312
vt 0.0312 0.4688
vt 0.0312 0.0312
vt 0.5000 0.9688
vt 0.5312 0.5312
vt 0.5000 0.5312
vt 0.9688 0.5000
vt 0.5312 0.5312
vt 0.5312 0.5000
vt 0.5312 1.0000
vt 0.9688 0.9688
vt 0.9688 1.0000
vt 1.0000 0.2188
vt 1.0000 0.3750
vt 1.0000 0.4688
vt 0.0000 1.0000
vt 0.0000 1.0000
vt 0.0000 0.5000
vt 0.5000 0.5000
vt 0.4688 0.4688
vt 0.5312 0.9688
vt 0.5312 0.9688
vn -1.0000 -0.0000 0.0000
vn 0.0000 -1.0000 0.0000
vn 0.0000 1.0000 0.0000
vn 1.0000 -0.0000 0.0000
vn 0.0000 0.0000 -1.0000
vn 0.0000 -0.0000 1.0000
usemtl locker
f 8/1/1 2/2/1 6/3/1
f 2/4/2 4/5/2 3/6/2
f 8/7/3 7/8/3 5/9/3
f 7/10/4 4/11/4 5/12/4
f 1/13/5 5/9/5 4/5/5
f 17/14/5 20/15/5 22/16/5
f 11/17/4 13/18/4 9/19/4
f 22/20/4 10/21/4 18/22/4
f 20/15/5 9/23/5 21/24/5
f 16/25/2 13/18/2 12/26/2
f 18/27/5 9/23/5 16/28/5
f 14/29/3 17/30/3 15/31/3
f 12/32/6 14/33/6 15/34/6
f 12/26/1 17/35/1 16/36/1
f 17/14/5 18/27/5 16/28/5
f 10/37/5 24/38/5 19/39/5
f 21/40/1 24/41/1 20/42/1
f 18/43/3 19/44/3 21/45/3
f 20/46/2 23/47/2 22/48/2
f 8/1/1 1/49/1 2/2/1
f 2/4/2 1/13/2 4/5/2
f 8/7/3 6/50/3 7/8/3
f 7/10/4 3/51/4 4/11/4
f 1/13/5 8/7/5 5/9/5
f 17/14/5 11/52/5 20/15/5
f 11/17/4 14/29/4 13/18/4
f 22/20/4 23/47/4 10/21/4
f 20/15/5 11/52/5 9/23/5
f 16/25/2 9/53/2 13/18/2
f 18/27/5 21/24/5 9/23/5
f 14/29/3 11/54/3 17/30/3
f 12/32/6 13/55/6 14/33/6
f 12/26/1 15/31/1 17/35/1
f 17/14/5 22/16/5 18/27/5
f 10/37/5 23/56/5 24/38/5
f 21/40/1 19/57/1 24/41/1
f 18/43/3 10/21/3 19/44/3
f 20/46/2 24/58/2 23/47/2
