# Blender v2.78 (sub 0) OBJ File: 'locker.blend'
# www.blender.org
mtllib locker.mtl
o locker_large
v 0.937500 1.937500 0.937500
v 0.937500 0.062500 -0.000000
v 0.062500 0.062500 0.937500
v 0.937500 0.062500 0.937500
v 1.000000 0.000000 1.000000
v 0.937500 1.937500 0.000000
v 1.000000 2.000000 0.000000
v 0.000000 0.000000 -0.000000
v 1.000000 0.000000 -0.000000
v 0.062500 1.937500 0.937500
v 0.000000 0.000000 1.000000
v 1.000000 2.000000 1.000000
v 0.000000 2.000000 1.000000
v 0.000000 2.000000 0.000000
v 0.062500 1.937500 0.000000
v 0.062500 0.062500 -0.000000
vt 0.2500 0.5000
vt 0.0156 0.4844
vt 0.2344 0.4844
vt 0.2656 1.0000
vt 0.4844 0.7656
vt 0.4844 1.0000
vt 0.4844 0.7500
vt 0.2656 0.9844
vt 0.2656 0.7500
vt 0.2500 0.0156
vt 0.4844 0.4844
vt 0.2500 0.4844
vt 0.2500 0.5000
vt 0.0000 -0.0000
vt 0.2500 -0.0000
vt 0.5000 0.4844
vt 0.2656 0.0156
vt 0.5000 0.0156
vt 0.0000 -0.0000
vt 0.0156 0.0156
vt 0.2500 1.0000
vt 0.0000 0.7500
vt 0.2500 0.7500
vt 0.2344 0.0156
vt 0.2500 -0.0000
vt 0.4844 0.4844
vt 0.2656 0.0156
vt 0.4844 0.0156
vt 0.0000 1.0000
vt 0.2500 0.7500
vt 0.2500 1.0000
vt 0.0000 -0.0000
vt 0.2500 0.5000
vt 0.0000 0.5000
vt 0.2500 0.5000
vt 0.0000 -0.0000
vt 0.2500 -0.0000
vt 0.0000 0.5000
vt 0.2656 0.7656
vt 0.4844 0.9844
vt 0.4844 0.0156
vt 0.0000 0.5000
vt 0.2656 0.4844
vt 0.0000 1.0000
vt 0.2656 0.4844
vt 0.0000 0.7500
vt 0.2500 -0.0000
vt 0.0000 0.5000
vn 0.0000 -0.0000 -1.0000
vn 0.0000 -1.0000 0.0000
vn 0.0000 1.0000 0.0000
vn -1.0000 0.0000 0.0000
vn 1.0000 0.0000 0.0000
vn 0.0000 0.0000 1.0000
usemtl material
f 14/1/1 6/2/1 15/3/1
f 6/4/2 10/5/2 15/6/2
f 16/7/3 4/8/3 2/9/3
f 2/10/4 1/11/4 6/12/4
f 7/13/5 5/14/5 9/15/5
f 15/16/5 3/17/5 16/18/5
f 6/2/1 9/19/1 2/20/1
f 8/21/2 5/22/2 11/23/2
f 16/24/1 9/19/1 8/25/1
f 10/26/1 4/27/1 3/28/1
f 12/29/3 14/30/3 13/31/3
f 11/32/6 12/33/6 13/34/6
f 13/35/4 8/36/4 11/37/4
f 14/1/1 16/24/1 8/25/1
f 14/1/1 7/38/1 6/2/1
f 6/4/2 1/39/2 10/5/2
f 16/7/3 3/40/3 4/8/3
f 2/10/4 4/41/4 1/11/4
f 7/13/5 12/42/5 5/14/5
f 15/16/5 10/43/5 3/17/5
f 6/2/1 7/38/1 9/19/1
f 8/21/2 9/44/2 5/22/2
f 16/24/1 2/20/1 9/19/1
f 10/26/1 1/45/1 4/27/1
f 12/29/3 7/46/3 14/30/3
f 11/32/6 5/47/6 12/33/6
f 13/35/4 14/48/4 8/36/4
f 14/1/1 15/3/1 16/24/1
