# Blender v2.78 (sub 0) OBJ File: 'locker.blend'
# www.blender.org
mtllib locker_large.mtl
o locker_large_bottom
v 0.937500 0.062500 -0.000000
v 0.062500 0.062500 0.937500
v 0.937500 0.062500 0.937500
v 1.000000 0.000000 1.000000
v 0.000000 0.000000 -0.000000
v 1.000000 0.000000 -0.000000
v 0.000000 0.000000 1.000000
v 0.062500 0.062500 -0.000000
v 0.062500 1.000000 0.000000
v 0.062500 1.000000 0.937500
v 0.937500 1.000000 0.000000
v 0.000000 1.000000 1.000000
v 1.000000 1.000000 0.000000
v 0.937500 1.000000 0.937500
v 0.000000 1.000000 0.000000
v 1.000000 1.000000 1.000000
vt 0.4844 0.7500
vt 0.2656 0.9844
vt 0.2656 0.7500
vt 0.2500 0.7344
vt 0.4844 0.5000
vt 0.2500 0.5000
vt 0.2500 1.0000
vt 0.0000 0.7500
vt 0.2500 0.7500
vt 0.2344 0.2656
vt -0.0000 0.2500
vt 0.2500 0.2500
vt 0.0000 0.2500
vt 0.2500 0.5000
vt 0.0000 0.5000
vt 0.2500 0.5000
vt 0.2500 0.2500
vt 0.0000 0.5000
vt 0.0000 0.2500
vt 0.4844 0.5000
vt 0.2656 0.2656
vt 0.4844 0.2656
vt 0.0156 0.2656
vt 0.0000 0.5000
vt 0.5000 0.5000
vt 0.2656 0.2656
vt 0.5000 0.2656
vt 0.2500 0.5000
vt 0.0000 0.2500
vt 0.2500 0.2500
vt 0.4844 0.9844
vt 0.4844 0.7344
vt 0.0000 1.0000
vt 0.2500 0.2500
vt 0.2344 0.5000
vt 0.2500 0.5000
vt 0.2656 0.5000
vt 0.0156 0.5000
vt 0.2656 0.5000
vt 0.0000 0.5000
vn 0.0000 1.0000 0.0000
vn -1.0000 0.0000 0.0000
vn 0.0000 -1.0000 0.0000
vn 0.0000 -0.0000 -1.0000
vn 0.0000 -0.0000 1.0000
vn 1.0000 0.0000 0.0000
usemtl locker_large
f 8/1/1 3/2/1 1/3/1
f 1/4/2 14/5/2 11/6/2
f 5/7/3 4/8/3 7/9/3
f 8/10/4 6/11/4 5/12/4
f 7/13/5 16/14/5 12/15/5
f 15/16/4 8/10/4 5/12/4
f 7/17/2 15/18/2 5/19/2
f 10/20/4 3/21/4 2/22/4
f 1/23/4 13/24/4 6/11/4
f 9/25/6 2/26/6 8/27/6
f 13/28/6 4/29/6 6/30/6
f 8/1/1 2/31/1 3/2/1
f 1/4/2 3/32/2 14/5/2
f 5/7/3 6/33/3 4/8/3
f 8/10/4 1/23/4 6/11/4
f 7/13/5 4/34/5 16/14/5
f 15/16/4 9/35/4 8/10/4
f 7/17/2 12/36/2 15/18/2
f 10/20/4 14/37/4 3/21/4
f 1/23/4 11/38/4 13/24/4
f 9/25/6 10/39/6 2/26/6
f 13/28/6 16/40/6 4/29/6
