# Blender v2.78 (sub 0) OBJ File: 'locker.blend'
# www.blender.org
mtllib locker_large.mtl
o locker_large_door
v 0.000000 1.875000 -0.031250
v -0.875000 -0.000000 -0.031250
v -0.875000 -0.000000 0.031250
v -0.875000 1.875000 0.031250
v -0.875000 1.875000 -0.031250
v 0.000000 -0.000000 0.031250
v 0.000000 -0.000000 -0.031250
v 0.000000 1.875000 0.031250
v -0.687500 0.750000 -0.093750
v -0.750000 0.750000 -0.031250
v -0.750000 0.875000 -0.031250
v -0.687500 0.750000 -0.031250
v -0.687500 0.875000 -0.093750
v -0.687500 0.875000 -0.031250
v -0.750000 0.875000 -0.093750
v -0.750000 0.750000 -0.093750
vt 0.7188 0.4844
vt 0.5000 0.0156
vt 0.5000 0.4844
vt 0.7344 0.0156
vt 0.7188 0.0156
vt 0.9531 0.4688
vt 0.7344 0.0312
vt 0.7344 0.4688
vt 0.7188 0.0000
vt 0.5000 0.5000
vt 0.7344 0.4844
vt 0.7188 0.0156
vt 0.7188 0.4844
vt 0.9844 0.0469
vt 0.9688 0.0156
vt 0.9688 0.0469
vt 1.0000 0.0469
vt 0.9844 0.0156
vt 0.9531 0.0156
vt 0.9531 0.0469
vt 0.9844 0.0000
vt 0.9688 0.0000
vt 0.9688 0.0625
vt 0.9844 0.0625
vt 0.7344 0.4844
vt 0.9531 0.0312
vt 0.5000 0.0000
vt 0.7188 0.5000
vt 0.7344 0.0156
vt 1.0000 0.0156
vn 0.0000 -0.0000 -1.0000
vn -1.0000 0.0000 0.0000
vn 0.0000 0.0000 1.0000
vn 0.0000 1.0000 0.0000
vn 0.0000 -1.0000 0.0000
vn 1.0000 0.0000 0.0000
usemtl locker_large
f 2/1/1 1/2/1 7/3/1
f 2/1/2 4/4/2 5/5/2
f 6/6/3 4/7/3 3/8/3
f 4/9/4 1/2/4 5/5/4
f 6/10/5 2/1/5 7/3/5
f 7/11/6 8/12/6 6/13/6
f 16/14/1 13/15/1 9/16/1
f 10/17/2 15/18/2 16/14/2
f 9/16/6 14/19/6 12/20/6
f 13/15/4 11/21/4 14/22/4
f 16/14/5 12/23/5 10/24/5
f 2/1/1 5/5/1 1/2/1
f 2/1/2 3/25/2 4/4/2
f 6/6/3 8/26/3 4/7/3
f 4/9/4 8/27/4 1/2/4
f 6/10/5 3/28/5 2/1/5
f 7/11/6 1/29/6 8/12/6
f 16/14/1 15/18/1 13/15/1
f 10/17/2 11/30/2 15/18/2
f 9/16/6 13/15/6 14/19/6
f 13/15/4 15/18/4 11/21/4
f 16/14/5 9/16/5 12/23/5
