# Blender v2.80 (sub 75) OBJ File: 'chest.blend'
# www.blender.org
mtllib reinforced_chest.mtl
o reinforced_chest_large_frame
v 1.937500 0.000000 0.062500
v 1.937500 0.000000 0.937500
v 0.062500 0.000000 0.937500
v 0.062500 0.000000 0.062500
v 0.062500 0.625000 0.937500
v 0.062500 0.625000 0.062500
v 1.937500 0.625000 0.062500
v 1.937500 0.625000 0.937500
v 1.937500 0.562500 0.937500
v 0.062500 0.562500 0.937500
v 0.062500 0.562500 0.062500
v 1.937500 0.562500 0.062500
v 1.937500 0.062500 0.937500
v 1.937500 0.125000 0.937500
v 1.937500 0.500000 0.937500
v 0.062500 0.500000 0.937500
v 0.062500 0.125000 0.937500
v 0.062500 0.062500 0.937500
v 0.062500 0.500000 0.062500
v 0.062500 0.125000 0.062500
v 0.062500 0.062500 0.062500
v 1.937500 0.500000 0.062500
v 1.937500 0.125000 0.062500
v 1.937500 0.062500 0.062500
v 1.937500 0.000000 0.125000
v 1.937500 0.000000 0.187500
v 1.937500 0.000000 0.812500
v 1.937500 0.000000 0.875000
v 0.062500 0.000000 0.875000
v 0.062500 0.000000 0.812500
v 0.062500 0.000000 0.187500
v 0.062500 0.000000 0.125000
v 0.062500 0.625000 0.875000
v 0.062500 0.625000 0.812500
v 0.062500 0.625000 0.187500
v 0.062500 0.625000 0.125000
v 1.937500 0.625000 0.125000
v 1.937500 0.625000 0.187500
v 1.937500 0.625000 0.812500
v 1.937500 0.625000 0.875000
v 0.062500 0.562500 0.875000
v 0.062500 0.562500 0.812500
v 0.062500 0.562500 0.187500
v 0.062500 0.562500 0.125000
v 1.937500 0.562500 0.125000
v 1.937500 0.562500 0.187500
v 1.937500 0.562500 0.812500
v 1.937500 0.562500 0.875000
v 1.937500 0.062500 0.125000
v 1.937500 0.062500 0.187500
v 1.937500 0.062500 0.812500
v 1.937500 0.062500 0.875000
v 1.937500 0.125000 0.125000
v 1.937500 0.125000 0.187500
v 1.937500 0.125000 0.812500
v 1.937500 0.125000 0.875000
v 1.937500 0.500000 0.125000
v 1.937500 0.500000 0.187500
v 1.937500 0.500000 0.812500
v 1.937500 0.500000 0.875000
v 0.062500 0.062500 0.875000
v 0.062500 0.062500 0.812500
v 0.062500 0.062500 0.187500
v 0.062500 0.062500 0.125000
v 0.062500 0.125000 0.875000
v 0.062500 0.125000 0.812500
v 0.062500 0.125000 0.187500
v 0.062500 0.125000 0.125000
v 0.062500 0.500000 0.875000
v 0.062500 0.500000 0.812500
v 0.062500 0.500000 0.187500
v 0.062500 0.500000 0.125000
v 1.875000 0.000000 0.937500
v 1.812500 0.000000 0.937500
v 1.000000 0.000000 0.937500
v 0.187500 0.000000 0.937500
v 0.125000 0.000000 0.937500
v 1.875000 0.000000 0.062500
v 1.812500 0.000000 0.062500
v 1.000000 0.000000 0.062500
v 0.187500 0.000000 0.062500
v 0.125000 0.000000 0.062500
v 1.875000 0.625000 0.062500
v 1.812500 0.625000 0.062500
v 1.000000 0.625000 0.062500
v 0.187500 0.625000 0.062500
v 0.125000 0.625000 0.062500
v 1.875000 0.625000 0.937500
v 1.812500 0.625000 0.937500
v 1.000000 0.625000 0.937500
v 0.187500 0.625000 0.937500
v 0.125000 0.625000 0.937500
v 0.125000 0.562500 0.937500
v 0.187500 0.562500 0.937500
v 1.000000 0.562500 0.937500
v 1.812500 0.562500 0.937500
v 1.875000 0.562500 0.937500
v 1.875000 0.562500 0.062500
v 1.812500 0.562500 0.062500
v 1.000000 0.562500 0.062500
v 0.187500 0.562500 0.062500
v 0.125000 0.562500 0.062500
v 1.875000 0.500000 0.062500
v 1.812500 0.500000 0.062500
v 0.187500 0.500000 0.062500
v 0.125000 0.500000 0.062500
v 1.875000 0.125000 0.062500
v 1.812500 0.125000 0.062500
v 0.187500 0.125000 0.062500
v 0.125000 0.125000 0.062500
v 1.875000 0.062500 0.062500
v 1.812500 0.062500 0.062500
v 1.000000 0.062500 0.062500
v 0.187500 0.062500 0.062500
v 0.125000 0.062500 0.062500
v 0.125000 0.500000 0.937500
v 0.187500 0.500000 0.937500
v 1.812500 0.500000 0.937500
v 1.875000 0.500000 0.937500
v 0.125000 0.125000 0.937500
v 0.187500 0.125000 0.937500
v 1.812500 0.125000 0.937500
v 1.875000 0.125000 0.937500
v 0.125000 0.062500 0.937500
v 0.187500 0.062500 0.937500
v 1.000000 0.062500 0.937500
v 1.812500 0.062500 0.937500
v 1.875000 0.062500 0.937500
v 0.125000 0.625000 0.125000
v 0.187500 0.625000 0.125000
v 1.000000 0.625000 0.125000
v 1.812500 0.625000 0.125000
v 1.875000 0.625000 0.125000
v 0.125000 0.625000 0.187500
v 0.187500 0.625000 0.187500
v 1.812500 0.625000 0.187500
v 1.875000 0.625000 0.187500
v 0.125000 0.625000 0.812500
v 0.187500 0.625000 0.812500
v 1.812500 0.625000 0.812500
v 1.875000 0.625000 0.812500
v 0.125000 0.625000 0.875000
v 0.187500 0.625000 0.875000
v 1.000000 0.625000 0.875000
v 1.812500 0.625000 0.875000
v 1.875000 0.625000 0.875000
v 1.875000 0.000000 0.125000
v 1.812500 0.000000 0.125000
v 1.000000 0.000000 0.125000
v 0.187500 0.000000 0.125000
v 0.125000 0.000000 0.125000
v 1.875000 0.000000 0.187500
v 1.812500 0.000000 0.187500
v 0.187500 0.000000 0.187500
v 0.125000 0.000000 0.187500
v 1.875000 0.000000 0.812500
v 1.812500 0.000000 0.812500
v 0.187500 0.000000 0.812500
v 0.125000 0.000000 0.812500
v 1.875000 0.000000 0.875000
v 1.812500 0.000000 0.875000
v 1.000000 0.000000 0.875000
v 0.187500 0.000000 0.875000
v 0.125000 0.000000 0.875000
vt 0.125000 0.562500
vt 0.125000 0.625000
vt 0.062500 0.625000
vt 0.062500 0.562500
vt 0.125000 0.562500
vt 0.125000 0.625000
vt 0.062500 0.625000
vt 0.062500 0.562500
vt 0.125000 0.875000
vt 0.125000 0.937500
vt 0.062500 0.937500
vt 0.062500 0.875000
vt 0.125000 0.125000
vt 0.062500 0.125000
vt 0.062500 0.062500
vt 0.125000 0.062500
vt 0.125000 0.625000
vt 0.062500 0.625000
vt 0.062500 0.562500
vt 0.125000 0.562500
vt 0.125000 0.062500
vt 0.062500 0.062500
vt 0.062500 0.000000
vt 0.125000 0.000000
vt 0.875000 0.625000
vt 0.875000 0.562500
vt 0.937500 0.562500
vt 0.937500 0.625000
vt 0.875000 0.062500
vt 0.875000 0.000000
vt 0.937500 0.000000
vt 0.937500 0.062500
vt 0.125000 0.500000
vt 0.062500 0.500000
vt 0.125000 0.500000
vt 0.062500 0.500000
vt 0.125000 0.000000
vt 0.125000 0.062500
vt 0.062500 0.062500
vt 0.062500 0.000000
vt 0.125000 0.125000
vt 0.062500 0.125000
vt 0.125000 0.000000
vt 0.125000 0.062500
vt 0.062500 0.062500
vt 0.062500 0.000000
vt 0.125000 0.125000
vt 0.062500 0.125000
vt 0.875000 0.500000
vt 0.937500 0.500000
vt 0.875000 0.125000
vt 0.937500 0.125000
vt 0.062500 0.500000
vt 0.125000 0.500000
vt 0.125000 0.125000
vt 0.062500 0.125000
vt 0.937500 0.125000
vt 0.937500 0.500000
vt 0.875000 0.500000
vt 0.875000 0.125000
vt 0.937500 0.062500
vt 0.875000 0.062500
vt 0.812500 0.125000
vt 0.812500 0.062500
vt 0.187500 0.062500
vt 0.187500 0.125000
vt 0.937500 0.000000
vt 0.875000 0.000000
vt 0.812500 0.000000
vt 0.187500 0.000000
vt 0.937500 0.125000
vt 0.937500 0.500000
vt 0.875000 0.500000
vt 0.875000 0.125000
vt 0.937500 0.062500
vt 0.875000 0.062500
vt 0.812500 0.125000
vt 0.812500 0.062500
vt 0.187500 0.062500
vt 0.187500 0.125000
vt 0.937500 0.000000
vt 0.875000 0.000000
vt 0.812500 0.000000
vt 0.187500 0.000000
vt 0.937500 0.562500
vt 0.875000 0.562500
vt 0.812500 0.562500
vt 0.812500 0.500000
vt 0.187500 0.500000
vt 0.187500 0.562500
vt 0.937500 0.562500
vt 0.875000 0.562500
vt 0.812500 0.562500
vt 0.812500 0.500000
vt 0.187500 0.500000
vt 0.187500 0.562500
vt 0.125000 0.937500
vt 0.062500 0.937500
vt 0.062500 0.875000
vt 0.125000 0.875000
vt 0.062500 0.812500
vt 0.125000 0.812500
vt 0.125000 0.187500
vt 0.062500 0.187500
vt 0.125000 0.062500
vt 0.125000 0.125000
vt 0.062500 0.125000
vt 0.062500 0.062500
vt 0.125000 0.187500
vt 0.062500 0.187500
vt 0.125000 0.812500
vt 0.062500 0.812500
vt 0.937500 0.625000
vt 0.875000 0.625000
vt 0.812500 0.625000
vt 0.187500 0.625000
vt 0.937500 0.625000
vt 0.875000 0.625000
vt 0.812500 0.625000
vt 0.187500 0.625000
vt 0.937500 0.812500
vt 0.937500 0.875000
vt 0.875000 0.875000
vt 0.875000 0.812500
vt 0.812500 0.875000
vt 0.812500 0.812500
vt 0.187500 0.812500
vt 0.187500 0.875000
vt 0.937500 0.187500
vt 0.875000 0.187500
vt 0.937500 0.125000
vt 0.875000 0.125000
vt 0.812500 0.187500
vt 0.812500 0.125000
vt 0.000000 0.125000
vt 0.000000 0.062500
vt 0.812500 0.062500
vt 0.187500 0.125000
vt 0.187500 0.187500
vt 0.937500 0.062500
vt 0.875000 0.062500
vt 1.000000 0.125000
vt 0.187500 0.062500
vt 1.000000 0.062500
vt 0.937500 0.187500
vt 0.875000 0.187500
vt 0.875000 0.125000
vt 0.937500 0.125000
vt 0.812500 0.187500
vt 0.812500 0.125000
vt 0.187500 0.187500
vt 0.187500 0.125000
vt 0.937500 0.812500
vt 0.875000 0.812500
vt 0.937500 0.875000
vt 0.875000 0.875000
vt 0.812500 0.875000
vt 0.812500 0.812500
vt 0.812500 0.937500
vt 0.000000 0.937500
vt 0.000000 0.875000
vt 0.187500 0.875000
vt 0.187500 0.812500
vt 0.937500 0.937500
vt 0.875000 0.937500
vt 1.000000 0.937500
vt 0.187500 0.937500
vt 1.000000 0.875000
vt 0.937500 0.125000
vt 0.875000 0.125000
vt 0.875000 0.062500
vt 0.937500 0.062500
vt 0.812500 0.125000
vt 0.812500 0.062500
vt 0.187500 0.125000
vt 0.187500 0.062500
vt 0.937500 0.500000
vt 0.875000 0.500000
vt 0.937500 0.562500
vt 0.875000 0.562500
vt 0.812500 0.562500
vt 0.812500 0.500000
vt 0.187500 0.562500
vt 0.187500 0.500000
vt 0.062500 0.125000
vt 0.062500 0.062500
vt 0.125000 0.062500
vt 0.125000 0.125000
vt 0.187500 0.062500
vt 0.187500 0.125000
vt 0.812500 0.125000
vt 0.812500 0.062500
vt 0.062500 0.500000
vt 0.125000 0.500000
vt 0.062500 0.562500
vt 0.125000 0.562500
vt 0.187500 0.500000
vt 0.187500 0.562500
vt 0.187500 0.000000
vt 1.000000 0.000000
vt 1.000000 0.062500
vt 0.812500 0.562500
vt 0.812500 0.500000
vt 0.062500 0.000000
vt 0.125000 0.000000
vt 0.000000 0.000000
vt 0.812500 0.000000
vt 0.000000 0.062500
vt 1.000000 0.562500
vt 1.000000 0.625000
vt 0.187500 0.625000
vt 0.062500 0.625000
vt 0.125000 0.625000
vt -0.000000 0.562500
vt 0.812500 0.625000
vt -0.000000 0.625000
vt 0.000000 0.062500
vt 0.000000 -0.000000
vt 0.812500 -0.000000
vt 0.875000 -0.000000
vt 0.937500 -0.000000
vt 0.187500 0.000000
vt 1.000000 0.000000
vt 1.000000 0.062500
vt 0.812500 0.625000
vt -0.000000 0.625000
vt -0.000000 0.562500
vt 0.937500 0.625000
vt 0.875000 0.625000
vt 1.000000 0.625000
vt 0.187500 0.625000
vt 1.000000 0.562500
vt -0.000000 0.125000
vt -0.000000 0.062500
vt 0.812500 0.062500
vt 0.875000 0.062500
vt 0.937500 0.062500
vt 0.187500 0.062500
vt 1.000000 0.062500
vt 1.000000 0.125000
vt 0.812500 0.937500
vt 0.000000 0.937500
vt 0.000000 0.875000
vt 0.937500 0.937500
vt 0.875000 0.937500
vt 1.000000 0.937500
vt 0.187500 0.937500
vt 1.000000 0.875000
vn 1.0000 0.0000 0.0000
vn -1.0000 0.0000 0.0000
vn 0.0000 -1.0000 0.0000
vn 0.0000 1.0000 0.0000
vn 0.0000 0.0000 1.0000
vn 0.0000 0.0000 -1.0000
usemtl Chest_Frame
s off
f 48/1/1 40/2/1 8/3/1 9/4/1
f 44/5/2 36/6/2 6/7/2 11/8/2
f 164/9/3 77/10/3 3/11/3 29/12/3
f 142/13/4 33/14/4 5/15/4 92/16/4
f 92/17/5 5/18/5 10/19/5 93/20/5
f 124/21/5 18/22/5 3/23/5 77/24/5
f 87/25/6 102/26/6 11/27/6 6/28/6
f 115/29/6 82/30/6 4/31/6 21/32/6
f 72/33/2 44/5/2 11/8/2 19/34/2
f 60/35/1 48/1/1 9/4/1 15/36/1
f 28/37/1 52/38/1 13/39/1 2/40/1
f 52/38/1 56/41/1 14/42/1 13/39/1
f 60/35/1 15/36/1 14/42/1 56/41/1
f 32/43/2 64/44/2 21/45/2 4/46/2
f 64/44/2 68/47/2 20/48/2 21/45/2
f 72/33/2 19/34/2 20/48/2 68/47/2
f 102/26/6 106/49/6 19/50/6 11/27/6
f 106/49/6 110/51/6 20/52/6 19/50/6
f 110/51/6 115/29/6 21/32/6 20/52/6
f 93/20/5 10/19/5 16/53/5 116/54/5
f 120/55/5 17/56/5 18/22/5 124/21/5
f 17/57/2 16/58/2 69/59/2 65/60/2
f 18/61/2 17/57/2 65/60/2 61/62/2
f 61/62/2 65/60/2 66/63/2 62/64/2
f 63/65/2 67/66/2 68/47/2 64/44/2
f 3/67/2 18/61/2 61/62/2 29/68/2
f 29/68/2 61/62/2 62/64/2 30/69/2
f 62/64/2 63/65/2 31/70/2 30/69/2
f 31/70/2 63/65/2 64/44/2 32/43/2
f 23/71/1 22/72/1 57/73/1 53/74/1
f 24/75/1 23/71/1 53/74/1 49/76/1
f 49/76/1 53/74/1 54/77/1 50/78/1
f 51/79/1 55/80/1 56/41/1 52/38/1
f 1/81/1 24/75/1 49/76/1 25/82/1
f 25/82/1 49/76/1 50/78/1 26/83/1
f 50/78/1 51/79/1 27/84/1 26/83/1
f 27/84/1 51/79/1 52/38/1 28/37/1
f 22/72/1 12/85/1 45/86/1 57/73/1
f 57/73/1 45/86/1 46/87/1 58/88/1
f 59/89/1 47/90/1 48/1/1 60/35/1
f 16/58/2 10/91/2 41/92/2 69/59/2
f 69/59/2 41/92/2 42/93/2 70/94/2
f 71/95/2 43/96/2 44/5/2 72/33/2
f 87/97/4 6/98/4 36/99/4 129/100/4
f 129/100/4 36/99/4 35/101/4 134/102/4
f 138/103/4 34/104/4 33/14/4 142/13/4
f 82/105/3 151/106/3 32/107/3 4/108/3
f 151/106/3 155/109/3 31/110/3 32/107/3
f 155/109/3 159/111/3 30/112/3 31/110/3
f 159/111/3 164/9/3 29/12/3 30/112/3
f 10/91/2 5/113/2 33/114/2 41/92/2
f 41/92/2 33/114/2 34/115/2 42/93/2
f 34/115/2 35/116/2 43/96/2 42/93/2
f 43/96/2 35/116/2 36/6/2 44/5/2
f 12/85/1 7/117/1 37/118/1 45/86/1
f 45/86/1 37/118/1 38/119/1 46/87/1
f 38/119/1 39/120/1 47/90/1 46/87/1
f 47/90/1 39/120/1 40/2/1 48/1/1
f 27/121/3 28/122/3 160/123/3 156/124/3
f 156/124/3 160/123/3 161/125/3 157/126/3
f 158/127/3 163/128/3 164/9/3 159/111/3
f 26/129/3 27/121/3 156/124/3 152/130/3
f 25/131/3 26/129/3 152/130/3 147/132/3
f 147/132/3 152/130/3 153/133/3 148/134/3
f 148/134/3 149/135/3 80/136/3 79/137/3
f 150/138/3 154/139/3 155/109/3 151/106/3
f 1/140/3 25/131/3 147/132/3 78/141/3
f 78/141/3 147/132/3 148/134/3 79/137/3
f 149/142/3 150/138/3 81/143/3 80/144/3
f 81/143/3 150/138/3 151/106/3 82/105/3
f 39/145/4 141/146/4 146/147/4 40/148/4
f 141/146/4 140/149/4 145/150/4 146/147/4
f 139/151/4 138/103/4 142/13/4 143/152/4
f 38/153/4 137/154/4 141/146/4 39/145/4
f 134/102/4 35/101/4 34/104/4 138/103/4
f 37/155/4 133/156/4 137/154/4 38/153/4
f 133/156/4 132/157/4 136/158/4 137/154/4
f 84/159/4 85/160/4 131/161/4 132/157/4
f 130/162/4 129/100/4 134/102/4 135/163/4
f 7/164/4 83/165/4 133/156/4 37/155/4
f 83/165/4 84/159/4 132/157/4 133/156/4
f 85/166/4 86/167/4 130/162/4 131/168/4
f 86/167/4 87/97/4 129/100/4 130/162/4
f 14/169/5 123/170/5 128/171/5 13/172/5
f 123/170/5 122/173/5 127/174/5 128/171/5
f 121/175/5 120/55/5 124/21/5 125/176/5
f 15/177/5 119/178/5 123/170/5 14/169/5
f 116/54/5 16/53/5 17/56/5 120/55/5
f 9/179/5 97/180/5 119/178/5 15/177/5
f 97/180/5 96/181/5 118/182/5 119/178/5
f 94/183/5 93/20/5 116/54/5 117/184/5
f 23/185/6 24/186/6 111/187/6 107/188/6
f 107/188/6 111/187/6 112/189/6 108/190/6
f 109/191/6 114/192/6 115/29/6 110/51/6
f 22/193/6 23/185/6 107/188/6 103/194/6
f 12/195/6 22/193/6 103/194/6 98/196/6
f 98/196/6 103/194/6 104/197/6 99/198/6
f 79/199/6 80/200/6 113/201/6 112/189/6
f 101/202/6 105/203/6 106/49/6 102/26/6
f 24/186/6 1/204/6 78/205/6 111/187/6
f 111/187/6 78/205/6 79/199/6 112/189/6
f 80/206/6 81/207/6 114/192/6 113/208/6
f 99/198/6 100/209/6 85/210/6 84/211/6
f 114/192/6 81/207/6 82/30/6 115/29/6
f 7/212/6 12/195/6 98/196/6 83/213/6
f 83/213/6 98/196/6 99/198/6 84/211/6
f 100/214/6 101/202/6 86/215/6 85/216/6
f 126/217/5 75/218/5 74/219/5 127/174/5
f 86/215/6 101/202/6 102/26/6 87/25/6
f 13/172/5 128/171/5 73/220/5 2/221/5
f 128/171/5 127/174/5 74/219/5 73/220/5
f 125/176/5 76/222/5 75/223/5 126/224/5
f 89/225/5 90/226/5 95/227/5 96/181/5
f 125/176/5 124/21/5 77/24/5 76/222/5
f 8/228/5 88/229/5 97/180/5 9/179/5
f 88/229/5 89/225/5 96/181/5 97/180/5
f 90/230/5 91/231/5 94/183/5 95/232/5
f 144/233/4 90/234/4 89/235/4 145/150/4
f 91/231/5 92/17/5 93/20/5 94/183/5
f 40/148/4 146/147/4 88/236/4 8/237/4
f 146/147/4 145/150/4 89/235/4 88/236/4
f 143/152/4 91/238/4 90/239/4 144/240/4
f 74/241/3 75/242/3 162/243/3 161/125/3
f 143/152/4 142/13/4 92/16/4 91/238/4
f 28/122/3 2/244/3 73/245/3 160/123/3
f 160/123/3 73/245/3 74/241/3 161/125/3
f 75/246/3 76/247/3 163/128/3 162/248/3
f 163/128/3 76/247/3 77/10/3 164/9/3
