# Blender v2.80 (sub 75) OBJ File: 'chest.blend'
# www.blender.org
mtllib reinforced_chest.mtl
o reinforced_chest_lid
v 0.187500 0.062500 0.062500
v 0.187500 0.062500 0.937500
v 0.187500 0.250000 0.937500
v 0.125000 0.187500 0.937500
v 0.187500 0.187500 0.937500
v 0.125000 0.125000 0.937500
v 0.187500 0.125000 0.937500
v 0.125000 0.125000 0.062500
v 0.187500 0.125000 0.062500
v 0.125000 0.187500 0.062500
v 0.187500 0.187500 0.062500
v 0.187500 0.250000 0.062500
v 0.812500 0.062500 0.937500
v 0.812500 0.062500 0.062500
v 0.812500 0.125000 0.062500
v 0.875000 0.125000 0.062500
v 0.812500 0.187500 0.062500
v 0.875000 0.187500 0.062500
v 0.812500 0.250000 0.062500
v 0.812500 0.250000 0.937500
v 0.812500 0.187500 0.937500
v 0.875000 0.187500 0.937500
v 0.812500 0.125000 0.937500
v 0.875000 0.125000 0.937500
v 0.937500 0.062500 0.187500
v 0.937500 0.062500 0.812500
v 0.062500 0.062500 0.812500
v 0.062500 0.062500 0.187500
v 0.062500 0.125000 0.875000
v 0.062500 0.125000 0.812500
v 0.062500 0.125000 0.187500
v 0.062500 0.125000 0.125000
v 0.062500 0.187500 0.875000
v 0.062500 0.187500 0.812500
v 0.062500 0.187500 0.187500
v 0.062500 0.187500 0.125000
v 0.062500 0.250000 0.812500
v 0.062500 0.250000 0.187500
v 0.937500 0.125000 0.125000
v 0.937500 0.125000 0.187500
v 0.937500 0.125000 0.812500
v 0.937500 0.125000 0.875000
v 0.937500 0.187500 0.125000
v 0.937500 0.187500 0.187500
v 0.937500 0.187500 0.812500
v 0.937500 0.187500 0.875000
v 0.937500 0.250000 0.187500
v 0.937500 0.250000 0.812500
v 0.125000 0.000000 0.187500
v 0.125000 0.000000 0.812500
v 0.187500 0.000000 0.125000
v 0.187500 0.000000 0.187500
v 0.187500 0.000000 0.812500
v 0.187500 0.000000 0.875000
v 0.187500 0.312500 0.125000
v 0.187500 0.312500 0.187500
v 0.187500 0.312500 0.812500
v 0.187500 0.312500 0.875000
v 0.125000 0.312500 0.187500
v 0.125000 0.312500 0.812500
v 0.875000 0.312500 0.187500
v 0.875000 0.312500 0.812500
v 0.812500 0.312500 0.125000
v 0.812500 0.312500 0.187500
v 0.812500 0.312500 0.812500
v 0.812500 0.312500 0.875000
v 0.812500 0.000000 0.125000
v 0.812500 0.000000 0.187500
v 0.812500 0.000000 0.812500
v 0.812500 0.000000 0.875000
v 0.875000 0.000000 0.187500
v 0.875000 0.000000 0.812500
vt 0.703125 0.187500
vt 0.718750 0.187500
vt 0.718750 0.203125
vt 0.703125 0.203125
vt 0.296875 0.203125
vt 0.281250 0.203125
vt 0.281250 0.187500
vt 0.296875 0.187500
vt 0.468750 0.203125
vt 0.453125 0.203125
vt 0.453125 0.187500
vt 0.468750 0.187500
vt 0.453125 0.218750
vt 0.296875 0.218750
vt 0.546875 0.203125
vt 0.703125 0.218750
vt 0.546875 0.218750
vt 0.531250 0.187500
vt 0.546875 0.187500
vt 0.531250 0.203125
vt 0.546875 0.171875
vt 0.703125 0.171875
vt 0.296875 0.171875
vt 0.453125 0.171875
vt 0.953125 0.453125
vt 0.968750 0.453125
vt 0.968750 0.296875
vt 0.953125 0.296875
vt 0.796875 0.468750
vt 0.953125 0.468750
vt 0.796875 0.453125
vt 0.796875 0.296875
vt 0.953125 0.281250
vt 0.796875 0.281250
vt 0.718750 0.453125
vt 0.703125 0.453125
vt 0.703125 0.296875
vt 0.718750 0.296875
vt 0.546875 0.453125
vt 0.531250 0.453125
vt 0.531250 0.296875
vt 0.546875 0.296875
vt 0.546875 0.281250
vt 0.703125 0.281250
vt 0.703125 0.468750
vt 0.546875 0.468750
vt 0.781250 0.453125
vt 0.781250 0.296875
vt 0.703125 0.203125
vt 0.703125 0.218750
vt 0.546875 0.218750
vt 0.546875 0.203125
vt 0.718750 0.187500
vt 0.718750 0.203125
vt 0.703125 0.187500
vt 0.546875 0.187500
vt 0.531250 0.203125
vt 0.531250 0.187500
vt 0.703125 0.171875
vt 0.546875 0.171875
vt 0.703125 0.203125
vt 0.703125 0.218750
vt 0.546875 0.218750
vt 0.546875 0.203125
vt 0.718750 0.187500
vt 0.718750 0.203125
vt 0.703125 0.187500
vt 0.546875 0.187500
vt 0.531250 0.203125
vt 0.531250 0.187500
vt 0.703125 0.171875
vt 0.546875 0.171875
vn 0.0000 0.0000 -1.0000
vn 0.0000 0.0000 1.0000
vn 0.0000 -1.0000 0.0000
vn 0.0000 1.0000 0.0000
vn 1.0000 0.0000 0.0000
vn -1.0000 0.0000 0.0000
usemtl Chest_Base
s off
f 9/1/1 8/2/1 10/3/1 11/4/1
f 5/5/2 4/6/2 6/7/2 7/8/2
f 22/9/2 21/10/2 23/11/2 24/12/2
f 21/10/2 5/5/2 7/8/2 23/11/2
f 20/13/2 3/14/2 5/5/2 21/10/2
f 17/15/1 11/4/1 12/16/1 19/17/1
f 16/18/1 15/19/1 17/15/1 18/20/1
f 15/19/1 9/1/1 11/4/1 17/15/1
f 14/21/1 1/22/1 9/1/1 15/19/1
f 23/11/2 7/8/2 2/23/2 13/24/2
f 68/25/3 71/26/3 72/27/3 69/28/3
f 51/29/3 67/30/3 68/25/3 52/31/3
f 52/31/3 68/25/3 69/28/3 53/32/3
f 53/32/3 69/28/3 70/33/3 54/34/3
f 61/35/4 64/36/4 65/37/4 62/38/4
f 56/39/4 59/40/4 60/41/4 57/42/4
f 64/36/4 56/39/4 57/42/4 65/37/4
f 65/37/4 57/42/4 58/43/4 66/44/4
f 63/45/4 55/46/4 56/39/4 64/36/4
f 49/47/3 52/31/3 53/32/3 50/48/3
f 44/49/5 47/50/5 48/51/5 45/52/5
f 39/53/5 43/54/5 44/49/5 40/55/5
f 40/55/5 44/49/5 45/52/5 41/56/5
f 41/56/5 45/52/5 46/57/5 42/58/5
f 25/59/5 40/55/5 41/56/5 26/60/5
f 34/61/6 37/62/6 38/63/6 35/64/6
f 29/65/6 33/66/6 34/61/6 30/67/6
f 30/67/6 34/61/6 35/64/6 31/68/6
f 31/68/6 35/64/6 36/69/6 32/70/6
f 27/71/6 30/67/6 31/68/6 28/72/6
