# Blender v2.80 (sub 75) OBJ File: 'locker.blend'
# www.blender.org
mtllib reinforced_locker.mtl
o reinforced_locker_door_r
v -0.125000 0.062500 0.125000
v -0.875000 0.062500 0.125000
v -0.062500 0.125000 0.125000
v -0.125000 0.125000 0.125000
v -0.875000 0.125000 0.125000
v -0.937500 0.125000 0.125000
v -0.062500 0.875000 0.125000
v -0.125000 0.875000 0.125000
v -0.875000 0.875000 0.125000
v -0.937500 0.875000 0.125000
v -0.125000 0.937500 0.125000
v -0.875000 0.937500 0.125000
v -0.875000 0.062500 0.000000
v -0.125000 0.062500 0.000000
v -0.937500 0.125000 0.000000
v -0.875000 0.125000 0.000000
v -0.125000 0.125000 0.000000
v -0.062500 0.125000 0.000000
v -0.937500 0.875000 0.000000
v -0.875000 0.875000 0.000000
v -0.125000 0.875000 0.000000
v -0.062500 0.875000 0.000000
v -0.875000 0.937500 0.000000
v -0.125000 0.937500 0.000000
vt 0.718750 0.984375
vt 0.531250 0.984375
vt 0.531250 0.968750
vt 0.718750 0.968750
vt 0.734375 0.781250
vt 0.734375 0.968750
vt 0.718750 0.781250
vt 0.531250 0.781250
vt 0.515625 0.968750
vt 0.515625 0.781250
vt 0.531250 0.765625
vt 0.718750 0.765625
vt 0.468750 0.734375
vt 0.281250 0.734375
vt 0.281250 0.718750
vt 0.468750 0.718750
vt 0.484375 0.531250
vt 0.484375 0.718750
vt 0.468750 0.531250
vt 0.281250 0.531250
vt 0.265625 0.718750
vt 0.265625 0.531250
vt 0.281250 0.515625
vt 0.468750 0.515625
vn 0.0000 0.0000 -1.0000
vn 0.0000 0.0000 1.0000
usemtl reinforced_locker
s off
f 23/1/1 24/2/1 21/3/1 20/4/1
f 15/5/1 19/6/1 20/4/1 16/7/1
f 21/3/1 17/8/1 16/7/1 20/4/1
f 17/8/1 21/3/1 22/9/1 18/10/1
f 16/7/1 17/8/1 14/11/1 13/12/1
f 11/13/2 12/14/2 9/15/2 8/16/2
f 3/17/2 7/18/2 8/16/2 4/19/2
f 9/15/2 5/20/2 4/19/2 8/16/2
f 5/20/2 9/15/2 10/21/2 6/22/2
f 4/19/2 5/20/2 2/23/2 1/24/2
