# Blender v2.80 (sub 75) OBJ File: 'locker.blend'
# www.blender.org
mtllib reinforced_locker.mtl
o reinforced_locker_door_large_frame_r
v -1.000000 0.000000 0.125000
v -1.000000 2.000000 0.125000
v -1.000000 0.000000 0.000000
v -1.000000 2.000000 0.000000
v 0.000000 0.000000 0.125000
v 0.000000 2.000000 0.125000
v 0.000000 0.000000 0.000000
v 0.000000 2.000000 0.000000
v -1.000000 0.062500 0.125000
v -1.000000 0.125000 0.125000
v -1.000000 1.875000 0.125000
v -1.000000 1.937500 0.125000
v -1.000000 1.937500 0.000000
v -1.000000 1.875000 0.000000
v -1.000000 0.125000 0.000000
v -1.000000 0.062500 0.000000
v 0.000000 1.937500 0.000000
v 0.000000 1.875000 0.000000
v 0.000000 0.125000 0.000000
v 0.000000 0.062500 0.000000
v 0.000000 1.937500 0.125000
v 0.000000 1.875000 0.125000
v 0.000000 0.125000 0.125000
v 0.000000 0.062500 0.125000
v -0.062500 0.000000 0.000000
v -0.125000 0.000000 0.000000
v -0.875000 0.000000 0.000000
v -0.937500 0.000000 0.000000
v -0.937500 2.000000 0.000000
v -0.875000 2.000000 0.000000
v -0.125000 2.000000 0.000000
v -0.062500 2.000000 0.000000
v -0.937500 0.000000 0.125000
v -0.875000 0.000000 0.125000
v -0.125000 0.000000 0.125000
v -0.062500 0.000000 0.125000
v -0.062500 2.000000 0.125000
v -0.125000 2.000000 0.125000
v -0.875000 2.000000 0.125000
v -0.937500 2.000000 0.125000
v -0.062500 0.062500 0.125000
v -0.125000 0.062500 0.125000
v -0.875000 0.062500 0.125000
v -0.937500 0.062500 0.125000
v -0.062500 0.125000 0.125000
v -0.125000 0.125000 0.125000
v -0.875000 0.125000 0.125000
v -0.937500 0.125000 0.125000
v -0.062500 1.875000 0.125000
v -0.125000 1.875000 0.125000
v -0.875000 1.875000 0.125000
v -0.937500 1.875000 0.125000
v -0.062500 1.937500 0.125000
v -0.125000 1.937500 0.125000
v -0.875000 1.937500 0.125000
v -0.937500 1.937500 0.125000
v -0.937500 0.062500 0.000000
v -0.875000 0.062500 0.000000
v -0.125000 0.062500 0.000000
v -0.062500 0.062500 0.000000
v -0.937500 0.125000 0.000000
v -0.875000 0.125000 0.000000
v -0.125000 0.125000 0.000000
v -0.062500 0.125000 0.000000
v -0.937500 1.875000 0.000000
v -0.875000 1.875000 0.000000
v -0.125000 1.875000 0.000000
v -0.062500 1.875000 0.000000
v -0.937500 1.937500 0.000000
v -0.875000 1.937500 0.000000
v -0.125000 1.937500 0.000000
v -0.062500 1.937500 0.000000
v -0.875000 0.875000 0.187500
v -0.875000 1.125000 0.187500
v -0.875000 0.875000 0.125000
v -0.875000 1.125000 0.125000
v -0.750000 0.875000 0.187500
v -0.750000 1.125000 0.187500
v -0.750000 0.875000 0.125000
v -0.750000 1.125000 0.125000
v -0.875000 1.000000 0.187500
v -0.875000 1.000000 0.125000
v -0.750000 1.000000 0.125000
v -0.750000 1.000000 0.187500
v -1.000000 1.000000 0.125000
v -1.000000 1.000000 0.000000
v -0.937500 1.000000 0.000000
v -0.937500 1.000000 0.125000
v 0.000000 1.000000 0.000000
v 0.000000 1.000000 0.125000
v -0.062500 1.000000 0.000000
v -0.062500 1.000000 0.125000
vt 0.187500 0.937500
vt 0.187500 1.000000
vt 0.062500 1.000000
vt 0.062500 0.937500
vt 0.062500 0.937500
vt 0.062500 1.000000
vt 0.000000 1.000000
vt 0.000000 0.937500
vt 0.187500 -0.000000
vt 0.187500 0.062500
vt 0.062500 0.062500
vt 0.062500 0.000000
vt 0.062500 0.937500
vt 0.062500 1.000000
vt 0.000000 1.000000
vt 0.000000 0.937500
vt 0.187500 0.125000
vt 0.062500 0.125000
vt 0.062500 0.000000
vt 0.062500 0.062500
vt 0.000000 0.062500
vt 0.000000 0.000000
vt 0.062500 0.125000
vt 0.000000 0.125000
vt 0.062500 1.000000
vt 0.000000 1.000000
vt 0.062500 0.875000
vt 0.000000 0.875000
vt 0.937500 0.000000
vt 0.937500 0.875000
vt 0.812500 0.875000
vt 0.812500 0.000000
vt 0.937500 0.187500
vt 0.937500 0.062500
vt 1.000000 0.062500
vt 1.000000 0.187500
vt 0.000000 0.187500
vt 0.000000 0.062500
vt 0.062500 0.062500
vt 0.062500 0.187500
vt 0.187500 0.000000
vt 0.187500 0.875000
vt 0.062500 0.875000
vt 0.062500 0.000000
vt 0.062500 0.000000
vt 0.062500 0.062500
vt 0.000000 0.062500
vt 0.000000 0.000000
vt 0.062500 0.125000
vt 0.000000 0.125000
vt 0.062500 1.000000
vt 0.000000 1.000000
vt 0.062500 0.875000
vt 0.000000 0.875000
vt 0.937500 -0.000000
vt 0.937500 0.062500
vt 0.812500 0.062500
vt 0.812500 -0.000000
vt 0.062500 0.812500
vt 0.125000 0.812500
vt 0.125000 0.937500
vt 0.062500 0.937500
vt 1.000000 0.875000
vt 1.000000 0.937500
vt 0.937500 0.937500
vt 0.937500 0.875000
vt 0.875000 0.937500
vt 0.875000 0.875000
vt 0.125000 0.875000
vt 0.125000 0.937500
vt 1.000000 0.000000
vt 0.937500 0.000000
vt 1.000000 0.062500
vt 1.000000 0.125000
vt 0.937500 0.125000
vt 0.937500 0.062500
vt 0.875000 0.125000
vt 0.875000 0.062500
vt 0.125000 0.062500
vt 0.125000 0.125000
vt 1.000000 0.000000
vt 0.937500 0.000000
vt 0.875000 0.000000
vt 0.125000 0.000000
vt 1.000000 0.875000
vt 1.000000 0.937500
vt 0.937500 0.937500
vt 0.937500 0.875000
vt 0.875000 0.937500
vt 0.875000 0.875000
vt 0.125000 0.875000
vt 0.125000 0.937500
vt 1.000000 0.000000
vt 0.937500 0.000000
vt 1.000000 0.062500
vt 1.000000 0.125000
vt 0.937500 0.125000
vt 0.937500 0.062500
vt 0.875000 0.125000
vt 0.875000 0.062500
vt 0.125000 0.062500
vt 0.125000 0.125000
vt 1.000000 0.000000
vt 0.937500 0.000000
vt 0.875000 0.000000
vt 0.125000 0.000000
vt 0.875000 0.812500
vt 0.875000 0.937500
vt 0.937500 0.812500
vt 0.937500 0.937500
vt 1.000000 1.000000
vt 0.937500 1.000000
vt 0.875000 1.000000
vt 0.125000 1.000000
vt 1.000000 1.000000
vt 0.937500 1.000000
vt 0.875000 1.000000
vt 0.125000 1.000000
vt -0.000000 0.937500
vt -0.000000 0.812500
vt 0.937500 0.937500
vt 0.937500 1.000000
vt 0.812500 1.000000
vt 0.812500 0.937500
vt 0.125000 0.062500
vt 0.125000 0.187500
vt 0.875000 0.062500
vt 0.875000 0.187500
vt 1.000000 0.812500
vt 1.000000 0.937500
vt 0.937500 0.125000
vt 0.812500 0.125000
vt 1.000000 0.000000
vt 1.000000 0.125000
vt 0.937500 0.125000
vt 0.937500 0.000000
vt 0.062500 0.000000
vt 0.062500 0.125000
vt -0.000000 0.125000
vt -0.000000 0.000000
vt 0.250000 0.000000
vt 0.250000 0.125000
vt 0.125000 0.125000
vt 0.125000 0.000000
vt 0.125000 0.750000
vt 0.250000 0.750000
vt 0.250000 0.812500
vt 0.125000 0.812500
vt 0.250000 0.062500
vt 0.125000 0.062500
vt 0.125000 0.000000
vt 0.250000 0.000000
vt 0.250000 0.875000
vt 0.250000 1.000000
vt 0.125000 1.000000
vt 0.125000 0.875000
vt 0.062500 0.875000
vt 0.062500 1.000000
vt -0.000000 1.000000
vt -0.000000 0.875000
vt 1.000000 0.875000
vt 1.000000 1.000000
vt 0.937500 1.000000
vt 0.937500 0.875000
vt 1.000000 1.000000
vt 0.937500 1.000000
vt 0.937500 1.000000
vt 0.812500 1.000000
vt 0.000000 0.000000
vt 0.062500 0.000000
vt 1.000000 1.000000
vt 0.937500 1.000000
vt 0.000000 0.000000
vt 0.062500 0.000000
vt 0.187500 1.000000
vt 0.062500 1.000000
vn 1.0000 0.0000 0.0000
vn 0.0000 0.0000 -1.0000
vn 0.0000 0.0000 1.0000
vn -1.0000 0.0000 0.0000
vn 0.0000 1.0000 0.0000
vn 0.0000 -1.0000 0.0000
usemtl reinforced_frame
s off
f 17/1/1 8/2/1 6/3/1 21/4/1
f 72/5/2 32/6/2 8/7/2 17/8/2
f 7/9/1 20/10/1 24/11/1 5/12/1
f 56/13/3 40/14/3 2/15/3 12/16/3
f 20/10/1 19/17/1 23/18/1 24/11/1
f 33/19/3 44/20/3 9/21/3 1/22/3
f 44/20/3 48/23/3 10/24/3 9/21/3
f 88/25/3 85/26/3 10/24/3 48/23/3
f 52/27/3 56/13/3 12/16/3 11/28/3
f 85/29/4 11/30/4 14/31/4 86/32/4
f 32/33/5 37/34/5 6/35/5 8/36/5
f 4/37/5 2/38/5 40/39/5 29/40/5
f 89/41/1 18/42/1 22/43/1 90/44/1
f 25/45/2 60/46/2 20/47/2 7/48/2
f 60/46/2 64/49/2 19/50/2 20/47/2
f 91/51/2 89/52/2 19/50/2 64/49/2
f 68/53/2 72/5/2 17/8/2 18/54/2
f 18/42/1 17/1/1 21/4/1 22/43/1
f 1/55/4 9/56/4 16/57/4 3/58/4
f 28/59/6 27/60/6 34/61/6 33/62/6
f 14/63/2 13/64/2 69/65/2 65/66/2
f 65/66/2 69/65/2 70/67/2 66/68/2
f 67/69/2 71/70/2 72/5/2 68/53/2
f 86/71/2 14/63/2 65/66/2 87/72/2
f 16/73/2 15/74/2 61/75/2 57/76/2
f 57/76/2 61/75/2 62/77/2 58/78/2
f 59/79/2 63/80/2 64/49/2 60/46/2
f 3/81/2 16/73/2 57/76/2 28/82/2
f 28/82/2 57/76/2 58/78/2 27/83/2
f 58/78/2 59/79/2 26/84/2 27/83/2
f 26/84/2 59/79/2 60/46/2 25/45/2
f 22/85/3 21/86/3 53/87/3 49/88/3
f 49/88/3 53/87/3 54/89/3 50/90/3
f 51/91/3 55/92/3 56/13/3 52/27/3
f 90/93/3 22/85/3 49/88/3 92/94/3
f 24/95/3 23/96/3 45/97/3 41/98/3
f 41/98/3 45/97/3 46/99/3 42/100/3
f 43/101/3 47/102/3 48/23/3 44/20/3
f 5/103/3 24/95/3 41/98/3 36/104/3
f 36/104/3 41/98/3 42/100/3 35/105/3
f 42/100/3 43/101/3 34/106/3 35/105/3
f 34/106/3 43/101/3 44/20/3 33/19/3
f 27/60/6 26/107/6 35/108/6 34/61/6
f 25/109/6 36/110/6 35/108/6 26/107/6
f 21/86/3 6/111/3 37/112/3 53/87/3
f 53/87/3 37/112/3 38/113/3 54/89/3
f 38/113/3 39/114/3 55/92/3 54/89/3
f 55/92/3 39/114/3 40/14/3 56/13/3
f 13/64/2 4/115/2 29/116/2 69/65/2
f 69/65/2 29/116/2 30/117/2 70/67/2
f 30/117/2 31/118/2 71/70/2 70/67/2
f 71/70/2 31/118/2 32/6/2 72/5/2
f 28/59/6 33/62/6 1/119/6 3/120/6
f 12/121/4 2/122/4 4/123/4 13/124/4
f 29/40/5 40/39/5 39/125/5 30/126/5
f 30/126/5 39/125/5 38/127/5 31/128/5
f 31/128/5 38/127/5 37/34/5 32/33/5
f 25/109/6 7/129/6 5/130/6 36/110/6
f 12/121/4 13/124/4 14/31/4 11/30/4
f 9/56/4 10/131/4 15/132/4 16/57/4
f 81/133/4 74/134/4 76/135/4 82/136/4
f 83/137/1 80/138/1 78/139/1 84/140/1
f 84/141/3 78/142/3 74/143/3 81/144/3
f 75/145/6 79/146/6 77/147/6 73/148/6
f 80/149/5 76/150/5 74/151/5 78/152/5
f 77/153/3 84/154/3 81/155/3 73/156/3
f 79/157/1 83/158/1 84/159/1 77/160/1
f 73/161/4 81/162/4 82/163/4 75/164/4
f 15/74/2 86/165/2 87/166/2 61/75/2
f 10/131/4 85/167/4 86/168/4 15/132/4
f 52/27/3 11/28/3 85/169/3 88/170/3
f 23/96/3 90/171/3 92/172/3 45/97/3
f 68/53/2 18/54/2 89/173/2 91/174/2
f 19/17/1 89/175/1 90/176/1 23/18/1
