# Blender v2.80 (sub 75) OBJ File: 'chest.blend'
# www.blender.org
mtllib reinforced_chest.mtl
o reinforced_chest_lid_large
v 1.937500 0.062500 0.187500
v 1.937500 0.062500 0.812500
v 0.062500 0.062500 0.812500
v 0.062500 0.062500 0.187500
v 0.062500 0.125000 0.875000
v 0.062500 0.125000 0.812500
v 0.062500 0.125000 0.187500
v 0.062500 0.125000 0.125000
v 0.062500 0.187500 0.875000
v 0.062500 0.187500 0.812500
v 0.062500 0.187500 0.187500
v 0.062500 0.187500 0.125000
v 0.062500 0.250000 0.812500
v 0.062500 0.250000 0.187500
v 1.937500 0.125000 0.125000
v 1.937500 0.125000 0.187500
v 1.937500 0.125000 0.812500
v 1.937500 0.125000 0.875000
v 1.937500 0.187500 0.125000
v 1.937500 0.187500 0.187500
v 1.937500 0.187500 0.812500
v 1.937500 0.187500 0.875000
v 1.937500 0.250000 0.187500
v 1.937500 0.250000 0.812500
v 0.187500 0.062500 0.062500
v 1.000000 0.062500 0.062500
v 1.812500 0.062500 0.062500
v 0.187500 0.062500 0.937500
v 1.000000 0.062500 0.937500
v 1.812500 0.062500 0.937500
v 0.187500 0.250000 0.937500
v 1.000000 0.250000 0.937500
v 1.812500 0.250000 0.937500
v 0.125000 0.187500 0.937500
v 0.187500 0.187500 0.937500
v 1.000000 0.187500 0.937500
v 1.812500 0.187500 0.937500
v 1.875000 0.187500 0.937500
v 0.125000 0.125000 0.937500
v 0.187500 0.125000 0.937500
v 1.000000 0.125000 0.937500
v 1.812500 0.125000 0.937500
v 1.875000 0.125000 0.937500
v 0.125000 0.125000 0.062500
v 0.187500 0.125000 0.062500
v 1.000000 0.125000 0.062500
v 1.812500 0.125000 0.062500
v 1.875000 0.125000 0.062500
v 0.125000 0.187500 0.062500
v 0.187500 0.187500 0.062500
v 1.000000 0.187500 0.062500
v 1.812500 0.187500 0.062500
v 1.875000 0.187500 0.062500
v 0.187500 0.250000 0.062500
v 1.000000 0.250000 0.062500
v 1.812500 0.250000 0.062500
v 0.187500 0.312500 0.125000
v 1.000000 0.312500 0.125000
v 1.812500 0.312500 0.125000
v 0.125000 0.312500 0.187500
v 0.187500 0.312500 0.187500
v 1.000000 0.312500 0.187500
v 1.812500 0.312500 0.187500
v 1.875000 0.312500 0.187500
v 0.125000 0.312500 0.812500
v 0.187500 0.312500 0.812500
v 1.000000 0.312500 0.812500
v 1.812500 0.312500 0.812500
v 1.875000 0.312500 0.812500
v 0.187500 0.312500 0.875000
v 1.000000 0.312500 0.875000
v 1.812500 0.312500 0.875000
v 1.812500 0.000000 0.125000
v 1.000000 0.000000 0.125000
v 0.187500 0.000000 0.125000
v 1.875000 0.000000 0.187500
v 1.812500 0.000000 0.187500
v 1.000000 0.000000 0.187500
v 0.187500 0.000000 0.187500
v 0.125000 0.000000 0.187500
v 1.875000 0.000000 0.812500
v 1.812500 0.000000 0.812500
v 1.000000 0.000000 0.812500
v 0.187500 0.000000 0.812500
v 0.125000 0.000000 0.812500
v 1.812500 0.000000 0.875000
v 1.000000 0.000000 0.875000
v 0.187500 0.000000 0.875000
vt 0.703125 0.203125
vt 0.703125 0.218750
vt 0.546875 0.218750
vt 0.546875 0.203125
vt 0.718750 0.187500
vt 0.718750 0.203125
vt 0.703125 0.187500
vt 0.546875 0.187500
vt 0.531250 0.203125
vt 0.531250 0.187500
vt 0.734375 0.968750
vt 0.937500 0.968750
vt 0.937500 0.953125
vt 0.734375 0.953125
vt 0.703125 0.171875
vt 0.546875 0.171875
vt 0.703125 0.203125
vt 0.703125 0.218750
vt 0.546875 0.218750
vt 0.546875 0.203125
vt 0.531250 0.968750
vt 0.531250 0.953125
vt 0.718750 0.187500
vt 0.718750 0.203125
vt 0.703125 0.187500
vt 0.546875 0.187500
vt 0.531250 0.203125
vt 0.531250 0.187500
vt 0.953125 0.953125
vt 0.953125 0.796875
vt 0.937500 0.796875
vt 0.734375 0.796875
vt 0.703125 0.171875
vt 0.546875 0.171875
vt 0.531250 0.796875
vt 0.515625 0.953125
vt 0.515625 0.796875
vt 0.937500 0.781250
vt 0.734375 0.781250
vt 0.531250 0.781250
vt 0.453125 0.796875
vt 0.250000 0.796875
vt 0.250000 0.781250
vt 0.453125 0.781250
vt 0.046875 0.796875
vt 0.046875 0.781250
vt 0.468750 0.953125
vt 0.453125 0.953125
vt 0.468750 0.796875
vt 0.250000 0.953125
vt 0.046875 0.953125
vt 0.031250 0.953125
vt 0.031250 0.796875
vt 0.453125 0.968750
vt 0.250000 0.968750
vt 0.046875 0.968750
vt 0.046875 0.703125
vt 0.250000 0.703125
vt 0.250000 0.718750
vt 0.046875 0.718750
vt 0.453125 0.703125
vt 0.453125 0.718750
vt 0.031250 0.687500
vt 0.046875 0.687500
vt 0.031250 0.703125
vt 0.250000 0.687500
vt 0.453125 0.687500
vt 0.468750 0.687500
vt 0.468750 0.703125
vt 0.046875 0.671875
vt 0.250000 0.671875
vt 0.453125 0.671875
vt 0.468750 0.453125
vt 0.453125 0.453125
vt 0.453125 0.437500
vt 0.468750 0.437500
vt 0.250000 0.453125
vt 0.250000 0.437500
vt 0.046875 0.453125
vt 0.046875 0.437500
vt 0.031250 0.453125
vt 0.031250 0.437500
vt 0.453125 0.468750
vt 0.250000 0.468750
vt 0.046875 0.468750
vt 0.250000 0.421875
vt 0.453125 0.421875
vt 0.046875 0.421875
vn 1.0000 0.0000 0.0000
vn 0.0000 -1.0000 0.0000
vn -1.0000 0.0000 0.0000
vn 0.0000 1.0000 0.0000
vn 0.0000 0.0000 -1.0000
vn 0.0000 0.0000 1.0000
usemtl Chest_Base
s off
f 20/1/1 23/2/1 24/3/1 21/4/1
f 15/5/1 19/6/1 20/1/1 16/7/1
f 16/7/1 20/1/1 21/4/1 17/8/1
f 17/8/1 21/4/1 22/9/1 18/10/1
f 74/11/2 73/12/2 77/13/2 78/14/2
f 1/15/1 16/7/1 17/8/1 2/16/1
f 10/17/3 13/18/3 14/19/3 11/20/3
f 75/21/2 74/11/2 78/14/2 79/22/2
f 5/23/3 9/24/3 10/17/3 6/25/3
f 6/25/3 10/17/3 11/20/3 7/26/3
f 7/26/3 11/20/3 12/27/3 8/28/3
f 77/13/2 76/29/2 81/30/2 82/31/2
f 78/14/2 77/13/2 82/31/2 83/32/2
f 3/33/3 6/25/3 7/26/3 4/34/3
f 79/22/2 78/14/2 83/32/2 84/35/2
f 80/36/2 79/22/2 84/35/2 85/37/2
f 83/32/2 82/31/2 86/38/2 87/39/2
f 84/35/2 83/32/2 87/39/2 88/40/2
f 68/41/4 67/42/4 71/43/4 72/44/4
f 67/42/4 66/45/4 70/46/4 71/43/4
f 64/47/4 63/48/4 68/41/4 69/49/4
f 63/48/4 62/50/4 67/42/4 68/41/4
f 62/50/4 61/51/4 66/45/4 67/42/4
f 61/51/4 60/52/4 65/53/4 66/45/4
f 59/54/4 58/55/4 62/50/4 63/48/4
f 58/55/4 57/56/4 61/51/4 62/50/4
f 52/57/5 51/58/5 55/59/5 56/60/5
f 51/58/5 50/61/5 54/62/5 55/59/5
f 48/63/5 47/64/5 52/57/5 53/65/5
f 47/64/5 46/66/5 51/58/5 52/57/5
f 46/66/5 45/67/5 50/61/5 51/58/5
f 45/67/5 44/68/5 49/69/5 50/61/5
f 27/70/5 26/71/5 46/66/5 47/64/5
f 26/71/5 25/72/5 45/67/5 46/66/5
f 38/73/6 37/74/6 42/75/6 43/76/6
f 37/74/6 36/77/6 41/78/6 42/75/6
f 36/77/6 35/79/6 40/80/6 41/78/6
f 35/79/6 34/81/6 39/82/6 40/80/6
f 33/83/6 32/84/6 36/77/6 37/74/6
f 32/84/6 31/85/6 35/79/6 36/77/6
f 42/75/6 41/78/6 29/86/6 30/87/6
f 41/78/6 40/80/6 28/88/6 29/86/6
