# Blender v2.83.1 OBJ File: 'storage_bin.blend'
# www.blender.org
mtllib storage_bin.mtl
o storage_bin
v 0.125000 0.937500 0.000000
v 0.125000 0.937500 1.000000
v 0.875000 0.937500 1.000000
v 0.875000 0.937500 0.000000
v 0.125000 0.875000 1.000000
v 0.125000 0.125000 1.000000
v 0.125000 0.062500 1.000000
v 0.062500 0.875000 1.000000
v 0.062500 0.125000 1.000000
v 0.125000 0.062500 0.000000
v 0.125000 0.125000 0.000000
v 0.125000 0.875000 0.000000
v 0.062500 0.125000 0.000000
v 0.062500 0.875000 0.000000
v 0.937500 0.125000 0.000000
v 0.937500 0.875000 0.000000
v 0.875000 0.062500 0.000000
v 0.875000 0.125000 0.000000
v 0.875000 0.875000 0.000000
v 0.937500 0.875000 1.000000
v 0.937500 0.125000 1.000000
v 0.875000 0.875000 1.000000
v 0.875000 0.125000 1.000000
v 0.875000 0.062500 1.000000
v 0.000000 0.937500 0.875000
v 0.000000 0.937500 0.125000
v 1.000000 0.937500 0.125000
v 1.000000 0.937500 0.875000
v 0.125000 1.000000 0.062500
v 0.125000 1.000000 0.125000
v 0.125000 1.000000 0.875000
v 0.125000 1.000000 0.937500
v 0.062500 1.000000 0.125000
v 0.062500 1.000000 0.875000
v 0.125000 0.000000 0.937500
v 0.125000 0.000000 0.875000
v 0.125000 0.000000 0.125000
v 0.125000 0.000000 0.062500
v 0.062500 0.000000 0.875000
v 0.062500 0.000000 0.125000
v 0.937500 0.000000 0.875000
v 0.937500 0.000000 0.125000
v 0.875000 0.000000 0.937500
v 0.875000 0.000000 0.875000
v 0.875000 0.000000 0.125000
v 0.875000 0.000000 0.062500
v 0.937500 1.000000 0.125000
v 0.937500 1.000000 0.875000
v 0.875000 1.000000 0.062500
v 0.875000 1.000000 0.125000
v 0.875000 1.000000 0.875000
v 0.875000 1.000000 0.937500
v 1.000000 0.062500 0.125000
v 1.000000 0.062500 0.875000
v 1.000000 0.125000 0.062500
v 1.000000 0.125000 0.125000
v 1.000000 0.125000 0.875000
v 1.000000 0.125000 0.937500
v 1.000000 0.875000 0.062500
v 1.000000 0.875000 0.125000
v 1.000000 0.875000 0.875000
v 1.000000 0.875000 0.937500
v 0.000000 0.062500 0.875000
v 0.000000 0.062500 0.125000
v 0.000000 0.125000 0.937500
v 0.000000 0.125000 0.875000
v 0.000000 0.125000 0.125000
v 0.000000 0.125000 0.062500
v 0.000000 0.875000 0.937500
v 0.000000 0.875000 0.875000
v 0.000000 0.875000 0.125000
v 0.000000 0.875000 0.062500
vt 0.875000 0.937500
vt 0.125000 0.937500
vt 0.125000 0.875000
vt 0.875000 0.875000
vt 0.125000 0.125000
vt 0.875000 0.125000
vt 0.875000 0.875000
vt 0.125000 0.875000
vt 0.125000 0.937500
vt 0.875000 0.937500
vt 0.937500 0.125000
vt 0.937500 0.875000
vt 0.062500 0.875000
vt 0.062500 0.125000
vt 0.125000 0.125000
vt 0.062500 0.125000
vt 0.062500 0.875000
vt 0.125000 0.062500
vt 0.875000 0.062500
vt 0.875000 0.125000
vt 0.937500 0.125000
vt 0.937500 0.875000
vt 0.125000 0.062500
vt 0.875000 0.062500
vt 0.125000 0.875000
vt 0.125000 0.125000
vt 0.875000 0.125000
vt 0.875000 0.875000
vt 0.062500 0.875000
vt 0.062500 0.125000
vt 0.937500 0.125000
vt 0.937500 0.875000
vt 0.125000 0.062500
vt 0.875000 0.062500
vt 0.125000 0.875000
vt 0.125000 0.125000
vt 0.875000 0.125000
vt 0.875000 0.875000
vt 0.062500 0.875000
vt 0.062500 0.125000
vt 0.937500 0.125000
vt 0.937500 0.875000
vt 0.125000 0.062500
vt 0.875000 0.062500
vt 0.875000 0.875000
vt 0.875000 0.125000
vt 0.937500 0.125000
vt 0.937500 0.875000
vt 0.937500 0.875000
vt 0.875000 0.875000
vt 0.875000 0.125000
vt 0.937500 0.125000
vt 0.125000 0.875000
vt 0.062500 0.875000
vt 0.062500 0.125000
vt 0.125000 0.125000
vt 0.875000 0.062500
vt 0.125000 0.062500
vt 0.875000 0.937500
vt 0.125000 0.937500
vt 0.062500 0.875000
vt 0.062500 0.125000
vt 0.125000 0.125000
vt 0.125000 0.875000
vt 0.125000 0.062500
vt 0.875000 0.062500
vt 0.875000 0.937500
vt 0.125000 0.937500
vt 0.875000 0.937500
vt 0.125000 0.937500
vt 0.875000 0.937500
vt 0.125000 0.937500
vn 0.0000 0.0000 1.0000
vn 0.0000 0.0000 -1.0000
vn -1.0000 0.0000 0.0000
vn 1.0000 0.0000 0.0000
vn 0.0000 1.0000 0.0000
vn 0.0000 -1.0000 0.0000
usemtl Chest_Frame
s off
f 3/1/1 2/2/1 5/3/1 22/4/1
f 18/5/2 11/6/2 12/7/2 19/8/2
f 4/9/2 19/8/2 12/7/2 1/10/2
f 11/6/2 13/11/2 14/12/2 12/7/2
f 8/13/1 9/14/1 6/15/1 5/3/1
f 15/16/2 18/5/2 19/8/2 16/17/2
f 18/5/2 17/18/2 10/19/2 11/6/2
f 22/4/1 23/20/1 21/21/1 20/22/1
f 23/20/1 6/15/1 7/23/1 24/24/1
f 71/25/3 67/26/3 66/27/3 70/28/3
f 67/26/3 71/25/3 72/29/3 68/30/3
f 65/31/3 69/32/3 70/28/3 66/27/3
f 66/27/3 67/26/3 64/33/3 63/34/3
f 61/35/4 57/36/4 56/37/4 60/38/4
f 57/36/4 61/35/4 62/39/4 58/40/4
f 55/41/4 59/42/4 60/38/4 56/37/4
f 56/37/4 57/36/4 54/43/4 53/44/4
f 50/45/5 51/46/5 48/47/5 47/48/5
f 41/49/6 44/50/6 45/51/6 42/52/6
f 36/53/6 39/54/6 40/55/6 37/56/6
f 46/57/6 45/51/6 37/56/6 38/58/6
f 45/51/6 44/50/6 36/53/6 37/56/6
f 44/50/6 43/59/6 35/60/6 36/53/6
f 33/61/5 34/62/5 31/63/5 30/64/5
f 30/64/5 31/63/5 51/46/5 50/45/5
f 51/46/5 31/63/5 32/65/5 52/66/5
f 49/67/5 29/68/5 30/64/5 50/45/5
f 27/69/4 28/70/4 61/35/4 60/38/4
f 25/71/3 26/72/3 71/25/3 70/28/3
f 5/3/1 6/15/1 23/20/1 22/4/1
